<svg width="200" height="200" viewBox="0 0 200 200" fill="none" xmlns="http://www.w3.org/2000/svg">
<g clip-path="url(#clip0_270_195)">
<path d="M109.1 28.7C106.9 59.2 100 86.8 100 86.8C100 86.8 92.6001 59.1 90.9001 28.7C89.5001 6.6 92.6001 0 99.9001 0C107.4 0 110.7 6.6 109.1 28.7Z" fill="black"/>
<path d="M109.1 171.3C106.9 140.8 100 113.2 100 113.2C100 113.2 92.6 140.9 90.9 171.3C89.6 193.4 92.7 200 100 200C107.4 200 110.7 193.4 109.1 171.3Z" fill="black"/>
<path d="M28.7 90.8998C59.2 93.0998 86.8 99.9998 86.8 99.9998C86.8 99.9998 59.1 107.4 28.7 109.1C6.6 110.5 0 107.4 0 100.1C0 92.5998 6.6 89.2998 28.7 90.8998Z" fill="black"/>
<path d="M171.3 90.8998C140.8 93.0998 113.2 99.9998 113.2 99.9998C113.2 99.9998 140.9 107.4 171.3 109.1C193.4 110.4 200 107.3 200 99.9998C200 92.5998 193.4 89.2998 171.3 90.8998Z" fill="black"/>
<path d="M56.0001 43.0999C76.0001 66.1999 90.7001 90.6999 90.7001 90.6999C90.7001 90.6999 65.9001 76.2999 43.1001 56.0999C26.6001 41.3999 24.1001 34.5999 29.3001 29.3999C34.5001 24.0999 41.5001 26.3999 56.0001 43.0999Z" fill="black"/>
<path d="M156.9 144C133.8 124 109.3 109.3 109.3 109.3C109.3 109.3 123.7 134.1 144 156.9C158.7 173.4 165.5 175.9 170.7 170.7C175.9 165.5 173.6 158.5 156.9 144Z" fill="black"/>
<path d="M43.1002 144C66.2002 124 90.7002 109.3 90.7002 109.3C90.7002 109.3 76.3002 134.1 56.0002 156.9C41.3002 173.4 34.5002 175.9 29.3002 170.7C24.1002 165.5 26.4002 158.5 43.1002 144Z" fill="black"/>
<path d="M144 43.1002C124 66.2002 109.3 90.7002 109.3 90.7002C109.3 90.7002 134.1 76.3002 156.9 56.0002C173.4 41.3002 175.9 34.5002 170.7 29.3002C165.5 24.1002 158.5 26.4002 144 43.1002Z" fill="black"/>
</g>
<defs>
<clipPath id="clip0_270_195">
<rect width="200" height="200" fill="white"/>
</clipPath>
</defs>
</svg>
