<svg width="200" height="200" viewBox="0 0 200 200" fill="none" xmlns="http://www.w3.org/2000/svg">
<g clip-path="url(#clip0_270_137)">
<path d="M109.1 28.7C106.9 59.2 100 86.8 100 86.8C100 86.8 92.6001 59.1 90.9001 28.7C89.5001 6.6 92.6001 0 99.9001 0C107.4 0 110.7 6.6 109.1 28.7Z" fill="black"/>
<path d="M109.1 171.3C106.9 140.8 100 113.2 100 113.2C100 113.2 92.6 140.9 90.9 171.3C89.6 193.4 92.7 200 100 200C107.4 200 110.7 193.4 109.1 171.3Z" fill="black"/>
<path d="M28.7 90.8998C59.2 93.0998 86.8 99.9998 86.8 99.9998C86.8 99.9998 59.1 107.4 28.7 109.1C6.6 110.5 0 107.4 0 100.1C0 92.5998 6.6 89.2998 28.7 90.8998Z" fill="black"/>
<path d="M171.3 90.8998C140.8 93.0998 113.2 99.9998 113.2 99.9998C113.2 99.9998 140.9 107.4 171.3 109.1C193.4 110.4 200 107.3 200 99.9998C200 92.5998 193.4 89.2998 171.3 90.8998Z" fill="black"/>
</g>
<defs>
<clipPath id="clip0_270_137">
<rect width="200" height="200" fill="white"/>
</clipPath>
</defs>
</svg>
