<svg width="385" height="782" viewBox="0 0 385 782" fill="none" xmlns="http://www.w3.org/2000/svg">
<path d="M290.472 283.022C286.262 278.676 279.501 275.735 273.633 273.051C270.699 272.028 267.765 270.878 264.831 269.855C261.131 268.577 256.922 267.043 252.712 265.765C249.523 265.381 246.461 264.87 243.272 264.231C240.848 264.231 238.424 264.486 236 264.742C235.873 266.787 236.638 269.088 238.935 270.75C239.7 271.261 240.338 271.901 240.976 272.412C244.93 277.653 248.885 282.894 252.202 288.519C252.584 290.948 252.967 293.376 253.222 295.805C250.926 294.783 248.63 293.632 246.461 292.482C244.165 290.436 241.996 288.391 239.572 286.473C237.021 284.3 233.066 283.789 230.515 286.473C230.26 286.729 230.005 286.985 229.877 287.368C232.046 289.541 233.704 292.609 234.725 295.677C234.98 296.317 235.363 296.828 235.49 297.467C235.745 297.978 236 298.49 236.128 299.001C236.256 299.385 236.256 299.768 236.383 300.152C236.511 300.663 236.511 301.046 236.638 301.558C236.893 303.092 237.149 304.626 237.404 306.16C237.404 306.415 237.404 306.671 237.404 307.055C238.424 317.537 239.317 328.147 238.424 338.629C237.914 344.126 237.021 349.495 235.873 354.992C234.98 354.608 233.959 354.097 233.066 353.714C231.153 352.435 229.239 351.157 227.326 349.879C225.795 348.856 224.137 347.961 222.606 347.066C207.17 331.215 192.372 314.725 178.34 297.595C177.829 297.084 177.319 296.572 176.809 296.061C174.513 293.632 172.217 290.948 169.793 288.647C169.665 288.519 169.665 288.519 169.538 288.391C169.41 288.519 169.282 288.647 169.027 288.774C168.645 289.158 168.262 289.414 167.879 289.797C166.859 290.82 165.711 291.842 164.562 292.609C159.842 296.956 155.505 301.686 151.678 306.799C139.432 280.21 123.741 255.538 105.243 232.784C104.861 228.182 98.7374 224.219 94.2725 228.437C82.5363 239.303 70.8 250.169 59.1913 261.035C48.7308 270.878 38.7805 281.36 32.2745 294.271C21.0485 316.642 19.5177 341.953 19.7728 366.625C19.6453 370.204 19.7728 373.911 20.028 377.49C20.4107 390.402 20.7934 403.313 21.1761 416.224C20.6658 416.991 20.4107 417.886 20.2831 419.036C17.8593 442.813 16.3285 466.846 16.9663 490.75C17.4766 511.715 23.0896 533.191 39.4183 547.636C46.4345 553.772 54.854 558.502 64.0389 560.419C74.627 562.592 85.7255 562.081 96.3136 563.999C102.309 565.021 108.433 566.427 114.428 567.706C114.556 567.706 114.556 567.706 114.683 567.706C115.066 567.578 115.449 567.578 115.959 567.578C133.691 567.706 152.443 570.646 169.665 565.916C169.665 565.788 169.665 565.533 169.665 565.405C163.159 562.081 157.163 557.863 151.423 553.388C146.448 549.809 141.6 546.23 136.753 542.395C132.415 539.199 128.206 536.003 124.123 532.552C115.831 525.649 109.581 516.828 101.416 509.925C100.523 509.158 100.013 508.263 99.7579 507.369C91.3384 498.037 83.5568 488.322 76.413 478.095C66.08 463.266 56.8951 447.543 49.241 431.052C46.8172 417.758 42.6075 404.975 39.0356 391.936C37.8875 375.701 36.4842 359.338 33.295 343.487C33.295 343.359 33.1675 343.231 33.1675 342.976C34.0604 331.215 35.974 319.71 40.0561 308.589C45.414 294.143 54.9816 282.766 65.9524 272.284C66.3351 272.412 66.8454 272.668 67.3557 272.668C84.8325 276.375 99.2477 286.601 111.622 299.001C125.144 312.551 137.518 327.891 146.065 345.021C162.521 377.618 167.241 415.201 188.545 445.625C192.883 451.889 201.174 447.799 200.154 440.64C199.771 437.444 214.059 432.586 215.717 432.075C222.478 429.774 229.495 428.496 236.511 429.902C248.502 432.331 259.218 438.595 271.592 440.001C274.909 440.384 278.225 436.805 277.97 433.609C277.97 432.842 277.843 432.075 277.843 431.308C282.563 413.539 284.731 395.259 285.88 376.979C285.88 373.016 286.007 368.926 286.007 364.835C286.007 364.451 286.007 364.196 286.135 363.812C286.007 361.767 286.007 359.722 286.262 357.804C286.262 357.293 286.135 356.782 286.135 356.27C285.624 344.254 287.283 332.238 287.41 320.349C287.41 319.327 287.665 318.432 288.048 317.665C289.069 312.551 290.217 307.438 291.237 302.325C292.513 296.189 295.575 288.263 290.472 283.022Z" fill="#565656"/>
<path d="M101.161 133.457C98.865 130.389 95.5483 126.81 91.9764 128.088C88.532 129.239 87.8942 133.969 88.0218 137.676C88.532 149.437 91.5937 161.836 99.8856 170.146C102.437 172.702 105.626 174.875 109.198 174.875C112.77 174.875 116.469 171.935 116.087 168.356C124.251 186.252 140.58 200.57 159.715 204.916C178.85 209.262 200.409 202.615 212.783 187.403C215.717 183.824 218.141 179.733 220.31 175.514C229.495 157.746 233.832 137.548 232.811 117.606" stroke="black" stroke-width="3" stroke-miterlimit="10"/>
<path d="M174.13 51.9003C172.855 48.0653 166.731 43.4633 156.016 44.2303C145.045 44.9973 138.794 51.389 135.732 56.2466C131.395 63.1496 129.737 71.0752 128.078 79.1287C126.42 87.1822 125.399 95.3635 122.21 102.906C121.062 105.718 119.531 108.402 117.107 110.32C112.387 114.155 105.499 113.899 99.3755 113.516" stroke="black" stroke-width="3" stroke-miterlimit="10"/>
<path d="M157.291 17.8967C153.975 15.4678 146.831 14.0617 141.728 13.9338C134.584 13.806 127.568 14.0617 120.679 16.107C114.173 18.0245 108.178 21.3481 103.075 25.8223C89.5527 37.8386 80.623 54.329 75.5202 71.5865C70.4175 88.8439 69.1418 107.124 69.0143 125.148C68.8867 155.828 72.2035 186.892 81.2608 216.165" stroke="black" stroke-width="3" stroke-miterlimit="10"/>
<path d="M164.562 16.4906C173.875 13.2948 184.591 13.934 193.393 18.2803C203.853 23.3936 211.38 33.1089 217.248 43.2077C235.745 74.3989 242.889 112.237 237.021 148.031C233.449 169.634 225.412 191.494 230.898 212.714C225.795 214.632 221.075 217.316 216.738 220.64" stroke="black" stroke-width="3" stroke-miterlimit="10"/>
<path d="M177.702 51.0055C181.274 44.9973 194.031 43.5912 199.771 47.6818C206.66 52.4116 208.318 56.8858 209.467 64.8114C210.615 72.0979 212.145 86.7987 214.059 100.605C215.08 108.402 215.462 115.817 218.141 123.103C219.289 126.299 221.203 129.623 224.264 131.029C227.326 132.435 232.174 131.157 232.684 127.705" stroke="black" stroke-width="3" stroke-miterlimit="10"/>
<path d="M197.73 203.894C196.965 206.706 195.944 209.774 195.179 212.458C191.862 224.475 195.306 237.514 198.113 248.891" stroke="black" stroke-width="3" stroke-miterlimit="10"/>
<path d="M109.453 199.036C106.774 208.623 103.075 217.827 98.3545 226.52C98.7372 226.776 99.5026 226.776 99.7577 226.264" stroke="black" stroke-width="3" stroke-miterlimit="10"/>
<path d="M120.296 198.141C137.518 216.037 158.312 230.099 178.85 244.033C183.315 247.101 187.78 250.169 192.627 252.598C197.858 255.154 203.726 257.327 206.915 262.185C210.997 268.321 209.339 276.502 211.763 283.405C214.314 290.564 220.947 295.422 227.198 299.768" stroke="black" stroke-width="3" stroke-miterlimit="10"/>
<path d="M100.651 225.497C118.255 239.048 129.099 259.245 139.304 278.931C144.024 287.88 148.744 296.828 153.336 305.776C162.521 294.911 171.706 284.173 182.039 274.329C184.973 271.517 188.162 268.833 192.117 267.682C196.199 266.532 200.664 267.299 204.108 269.727" stroke="black" stroke-width="3" stroke-miterlimit="10"/>
<path d="M205.129 227.542C210.487 233.295 213.166 238.025 216.61 243.394C219.161 247.229 223.244 252.086 226.305 255.666C236.766 267.938 245.568 282.127 255.263 295.038C253.605 296.444 251.053 296.444 249.14 295.422C247.226 294.527 245.568 292.865 244.037 291.331C238.552 286.218 228.091 280.593 226.688 291.075" stroke="black" stroke-width="3" stroke-miterlimit="10"/>
<path d="M178.084 289.669C192.5 309.739 208.063 329.042 224.774 347.194C228.091 350.774 231.663 354.481 236.255 356.015C237.786 334.539 239.19 312.679 234.725 291.587" stroke="black" stroke-width="3" stroke-miterlimit="10"/>
<path d="M93.1245 231.25C85.2152 241.988 71.8206 245.823 62.1254 255.027C55.8746 261.035 48.986 267.171 43.373 273.69C38.3978 279.571 36.7394 281.872 33.04 288.647C30.2335 293.76 25.8962 303.348 24.1102 308.716C15.6907 332.493 14.5426 353.714 19.2626 376.979" stroke="black" stroke-width="3" stroke-miterlimit="10"/>
<path d="M58.8086 274.713C65.9524 268.96 76.6681 271.517 84.96 275.736C95.9309 281.232 105.881 288.902 113.918 298.106C125.527 311.401 133.181 327.764 140.58 343.871C147.341 358.571 154.229 373.272 157.929 388.996C159.332 395.132 160.353 401.395 161.883 407.531C165.838 423.383 173.747 438.339 184.463 450.611" stroke="black" stroke-width="3" stroke-miterlimit="10"/>
<path d="M239.955 261.546C258.452 266.532 277.588 273.562 289.707 288.391C290.6 289.414 291.365 290.564 291.62 291.843C291.875 293.121 291.493 294.399 291.237 295.55C287.665 309.1 285.497 323.034 284.987 336.968C284.604 345.021 284.859 353.202 284.731 361.256C284.604 386.567 282.435 411.878 278.353 436.933" stroke="black" stroke-width="3" stroke-miterlimit="10"/>
<path d="M294.044 306.543C300.423 314.341 305.27 323.417 308.204 333.005C309.99 338.885 311.138 345.149 314.072 350.646C316.624 355.375 320.323 359.466 323.64 363.684C331.677 374.039 337.417 385.927 342.137 398.072C343.668 402.034 345.071 405.997 347.24 409.704C348.771 412.261 350.557 414.562 352.47 416.863C361.272 427.345 372.371 437.955 372.754 451.633C372.881 456.235 371.733 460.71 370.457 465.184C368.289 472.854 365.61 480.524 362.548 487.938C359.742 494.713 356.68 501.36 351.832 506.729C344.944 514.399 335.376 518.746 325.936 523.092C324.66 523.731 323.257 524.243 321.854 524.243C319.94 524.243 318.282 523.22 316.751 522.197C302.081 513.377 284.859 508.775 267.765 509.286C265.469 509.414 263.173 509.542 260.876 508.903C258.835 508.263 257.049 507.113 255.136 505.962C250.161 503.022 244.803 500.849 239.19 499.571C233.067 498.165 225.668 497.142 222.989 491.39" stroke="black" stroke-width="3" stroke-miterlimit="10"/>
<path d="M193.393 451.634C194.923 449.46 196.454 447.415 198.24 445.37C203.726 439.106 209.849 433.098 217.12 429.135C218.779 428.24 222.095 427.473 224.009 427.473" stroke="black" stroke-width="3" stroke-miterlimit="10"/>
<path d="M227.581 427.09C230.388 426.195 233.322 426.578 236.128 427.09C244.803 428.751 253.35 431.819 261.259 435.782C263.683 437.06 266.107 438.467 268.02 440.384C270.061 442.429 271.592 445.114 272.995 447.798C279.119 459.048 285.369 470.425 287.793 483.08C288.176 484.998 288.431 487.043 288.176 489.088C287.921 490.878 287.283 492.54 286.517 494.202C284.604 498.932 282.563 503.661 280.649 508.391" stroke="black" stroke-width="3" stroke-miterlimit="10"/>
<path d="M227.198 430.669C240.338 448.566 252.712 467.229 260.876 487.81C261.514 489.344 262.152 491.006 262.024 492.54C261.769 496.631 257.432 499.443 256.539 503.406" stroke="black" stroke-width="3" stroke-miterlimit="10"/>
<path d="M273.123 437.316C273.505 436.677 287.665 438.211 291.11 437.572C299.529 436.166 307.821 436.294 316.113 438.211C317.899 438.595 319.557 439.106 321.088 440.129C323.257 441.79 324.405 444.475 325.681 446.776C330.656 455.852 344.688 474.516 347.75 468.124C350.046 462.883 338.055 452.912 331.931 446.265C328.104 442.046 324.277 437.828 320.323 433.609" stroke="black" stroke-width="3" stroke-miterlimit="10"/>
<path d="M322.364 428.624C327.977 428.112 333.973 427.601 338.948 430.158C340.862 431.18 342.52 432.586 344.306 433.737C348.133 436.421 352.47 438.595 357.063 439.489C358.976 439.873 357.573 436.421 357.318 435.015C357.063 433.609 356.17 432.459 354.894 431.819C354.639 431.692 351.195 430.541 349.154 430.03C345.199 429.135 342.265 425.556 339.203 422.999" stroke="black" stroke-width="3" stroke-miterlimit="10"/>
<path d="M54.8541 277.014C50.8995 279.571 45.159 286.346 42.48 290.564C37.3773 298.746 35.2087 308.077 34.0606 317.665C32.6573 329.298 33.2952 334.794 33.8054 340.291C37.1222 378.002 42.2249 416.224 57.4055 450.867C64.4217 467.101 73.7342 482.313 84.705 496.119C88.2769 500.594 92.2315 505.068 96.9515 508.264C104.733 513.377 115.194 515.55 120.041 523.604C123.231 528.845 123.358 536.003 127.695 540.35C131.267 544.057 136.88 544.952 141.6 546.997C151.806 551.599 158.184 562.337 168.134 567.578C177.83 572.691 189.566 571.796 200.409 570.646C224.519 568.345 248.63 565.916 272.74 563.615" stroke="black" stroke-width="3" stroke-miterlimit="10"/>
<path d="M223.116 575.12C229.367 580.873 234.087 588.031 238.807 595.19C244.42 603.755 250.033 612.447 255.774 621.012C263.045 614.621 270.444 607.973 275.292 599.664C278.991 593.272 281.032 585.986 283.073 578.955C284.987 572.436 286.773 565.788 288.686 559.269C289.324 556.84 290.089 554.283 289.962 551.855C289.579 544.952 283.328 539.327 288.431 533.191C293.534 527.055 299.274 523.348 302.463 515.55C301.826 516.701 301.06 517.851 300.422 519.002" stroke="black" stroke-width="3" stroke-miterlimit="10"/>
<path d="M222.351 499.826C226.56 508.136 227.326 518.107 224.392 526.927C223.754 528.717 223.116 530.89 224.392 532.296C225.54 533.574 227.836 533.063 228.984 531.785C230.132 530.506 230.515 528.717 230.898 526.927C232.046 520.663 233.194 514.399 234.342 508.136C234.47 507.752 234.47 507.369 234.725 506.985C235.107 506.474 235.745 506.09 236.383 505.962C238.934 505.579 240.975 508.136 241.996 510.564C243.017 512.865 243.782 515.422 244.292 517.851" stroke="black" stroke-width="3" stroke-miterlimit="10"/>
<path d="M84.5771 381.965C87.6388 384.393 90.0626 387.334 92.7415 390.146C97.3339 394.748 102.692 398.583 108.05 402.29C125.016 414.179 142.11 426.195 160.99 434.76C162.649 435.527 164.435 436.294 165.455 437.828C166.476 439.362 166.603 441.279 166.603 443.069C166.221 454.062 158.822 463.522 155.25 474.004C154.484 476.177 154.102 478.862 155.632 480.524C157.163 482.058 159.587 481.802 161.756 481.419C166.858 480.652 171.961 480.268 177.191 480.396" stroke="black" stroke-width="3" stroke-miterlimit="10"/>
<path d="M185.356 452.017C188.928 457.13 191.479 462.883 193.01 468.891C193.393 470.553 193.775 472.215 194.796 473.621C196.454 475.794 199.261 476.561 201.812 477.456C212.4 480.907 218.651 480.012 224.647 489.344" stroke="black" stroke-width="3" stroke-miterlimit="10"/>
<path d="M226.815 488.705C236 488.449 245.058 489.983 254.115 491.39C255.263 491.645 256.666 491.773 257.942 492.284" stroke="black" stroke-width="3" stroke-miterlimit="10"/>
<path d="M186.249 450.1C202.96 455.341 220.947 441.279 237.786 446.009" stroke="black" stroke-width="3" stroke-miterlimit="10"/>
<path d="M60.3393 563.871C47.0722 560.036 32.4019 555.306 25.2581 543.417C22.1964 538.432 20.9208 532.552 19.6451 526.799C16.5835 512.354 13.9045 497.653 14.4148 482.825C14.7975 474.132 16.2008 465.439 17.2213 456.747C20.4105 430.541 19.9002 404.08 19.5175 377.746" stroke="black" stroke-width="3" stroke-miterlimit="10"/>
<path d="M27.1719 429.263C28.5751 437.955 31.7643 446.392 36.3568 453.934C38.7806 457.769 41.4595 461.477 43.2454 465.695C44.9038 469.914 45.2865 475.027 42.9903 478.862C40.9492 482.186 37.2497 484.103 34.0605 486.404C30.8713 488.577 27.6821 491.773 27.6821 495.736" stroke="black" stroke-width="3" stroke-miterlimit="10"/>
<path d="M72.9686 498.42C71.1827 507.497 65.187 515.294 58.0432 521.047C54.2161 523.987 49.8788 526.799 48.2204 531.273C47.1999 534.086 47.3275 537.026 47.5826 539.966C47.7102 541.244 47.7102 542.523 48.4756 543.545C49.241 544.568 50.8994 544.952 51.7923 544.057" stroke="black" stroke-width="3" stroke-miterlimit="10"/>
<path d="M53.5784 565.405C52.1751 578.444 46.8173 590.588 43.7556 603.371C41.3319 613.214 40.0562 623.313 38.2702 633.284C32.147 666.776 18.8799 698.734 14.5426 732.482C12.1188 751.146 12.3739 770.193 8.03662 788.473" stroke="black" stroke-width="3" stroke-miterlimit="10"/>
<path d="M287.666 585.602C291.11 595.957 296.085 605.8 299.657 616.154C303.101 625.997 305.27 636.352 307.439 646.579C316.241 688.508 325.043 730.437 329.508 773.005" stroke="black" stroke-width="3" stroke-miterlimit="10"/>
<path d="M73.479 562.592C88.7872 559.908 104.095 566.555 119.403 569.112C131.522 571.157 144.024 570.646 156.015 567.578" stroke="black" stroke-width="3" stroke-miterlimit="10"/>
<path d="M65.3145 594.039C96.6962 602.476 129.736 602.604 162.266 602.732C180.763 602.732 199.643 602.732 217.375 597.363" stroke="black" stroke-width="3" stroke-miterlimit="10"/>
<path d="M115.066 636.863C106.902 658.467 94.4002 678.537 78.7094 695.539C74.8823 699.629 70.0347 703.848 64.5493 702.953C65.5699 702.953 66.4628 702.953 67.4834 702.953" stroke="black" stroke-width="3" stroke-miterlimit="10"/>
<path d="M162.521 651.948C163.542 700.396 163.925 748.717 163.797 797.166" stroke="black" stroke-width="3" stroke-miterlimit="10"/>
<path d="M193.138 655.143C197.985 684.801 191.862 715.48 197.73 744.882C200.154 757.026 204.491 768.659 210.615 779.269" stroke="black" stroke-width="3" stroke-miterlimit="10"/>
<path d="M253.222 665.114C253.095 704.487 239.572 742.453 226.178 779.525" stroke="black" stroke-width="3" stroke-miterlimit="10"/>
<path d="M273.378 645.428C275.674 664.603 288.686 680.71 294.937 698.99C297.999 707.938 299.402 717.526 300.677 726.858C303.994 749.74 307.311 773.133 303.484 795.887" stroke="black" stroke-width="3" stroke-miterlimit="10"/>
<path d="M91.4658 191.11C92.8691 198.78 93.3793 206.578 92.8691 214.376" stroke="black" stroke-width="3" stroke-miterlimit="10"/>
<path d="M102.054 189.193C102.437 191.494 103.33 201.592 102.947 203.638" stroke="black" stroke-width="3" stroke-miterlimit="10"/>
<path d="M122.848 109.425C133.563 94.9799 147.341 95.1077 152.316 96.2582" stroke="black" stroke-width="3" stroke-miterlimit="10"/>
<path d="M190.331 92.8066C199.899 87.182 213.038 88.0768 221.713 95.1076" stroke="black" stroke-width="3" stroke-miterlimit="10"/>
<path d="M151.423 114.027C152.316 115.561 152.699 117.99 152.954 120.163C153.464 125.404 153.974 130.645 154.612 135.886" stroke="black" stroke-width="3" stroke-miterlimit="10"/>
<path d="M199.771 107.891C200.536 109.681 201.174 111.982 201.557 114.155C202.322 119.652 203.088 125.276 203.853 130.773" stroke="black" stroke-width="3" stroke-miterlimit="10"/>
<path d="M177.319 151.482C179.743 150.076 182.422 148.925 185.101 148.158" stroke="black" stroke-width="3" stroke-miterlimit="10"/>
<path d="M167.497 174.364C177.702 175.387 188.163 173.086 196.965 167.844" stroke="black" stroke-width="3" stroke-miterlimit="10"/>
<path d="M118.893 180.372C118.893 181.778 118.893 183.185 118.893 184.463C118.893 186.508 118.893 188.554 118.383 190.599C117.873 192.644 116.852 194.562 115.832 196.351" stroke="black" stroke-width="3" stroke-miterlimit="10"/>
<path d="M273.888 512.098C278.225 514.655 280.904 519.513 282.435 524.37C283.966 529.228 284.731 534.341 286.262 539.071" stroke="black" stroke-width="3" stroke-miterlimit="10"/>
<path d="M169.793 53.8178C167.369 50.8776 162.777 50.1106 159.332 51.6446C155.76 53.0508 153.209 56.2466 151.678 59.8259C150.147 63.4052 149.637 67.2402 149.382 71.0752C148.234 84.8811 148.872 99.3263 143.769 112.237C142.111 116.456 139.687 120.547 135.987 123.103C132.415 125.532 128.461 126.938 124.251 127.577C119.148 128.344 113.535 128.344 108.433 127.705" stroke="black" stroke-width="3" stroke-miterlimit="10"/>
<path d="M306.762 541.535C306.456 541.535 306.184 541.449 305.946 541.276C305.712 541.101 305.528 540.856 305.395 540.544C305.264 540.231 305.199 539.872 305.199 539.465C305.199 539.064 305.264 538.71 305.395 538.4C305.528 538.088 305.712 537.845 305.946 537.673C306.184 537.5 306.456 537.414 306.762 537.414C307.081 537.414 307.357 537.508 307.592 537.697C307.826 537.886 307.986 538.13 308.07 538.43H308.09V537.473H308.393V540.285C308.396 540.594 308.474 540.837 308.627 541.013C308.783 541.188 308.988 541.275 309.242 541.271C309.499 541.271 309.724 541.184 309.916 541.008C310.108 540.832 310.256 540.583 310.36 540.261C310.468 539.938 310.521 539.562 310.521 539.133C310.521 538.479 310.372 537.896 310.072 537.385C309.773 536.874 309.353 536.475 308.812 536.188C308.275 535.899 307.657 535.754 306.957 535.754C306.267 535.754 305.653 535.913 305.116 536.232C304.579 536.548 304.161 536.988 303.861 537.551C303.562 538.114 303.412 538.752 303.412 539.465C303.412 540.197 303.557 540.845 303.847 541.408C304.136 541.968 304.548 542.403 305.082 542.712C305.619 543.021 306.241 543.176 306.947 543.176C307.221 543.176 307.471 543.163 307.699 543.137C307.93 543.114 308.161 543.075 308.393 543.02V543.312C308.181 543.361 307.948 543.399 307.694 543.425C307.44 543.454 307.195 543.469 306.957 543.469C306.195 543.469 305.523 543.303 304.94 542.971C304.361 542.635 303.91 542.165 303.588 541.56C303.269 540.954 303.109 540.256 303.109 539.465C303.109 538.693 303.274 538.005 303.603 537.399C303.931 536.791 304.387 536.315 304.97 535.974C305.556 535.632 306.218 535.461 306.957 535.461C307.709 535.461 308.376 535.617 308.959 535.93C309.545 536.242 310.001 536.677 310.326 537.233C310.652 537.79 310.814 538.423 310.814 539.133C310.814 539.621 310.749 540.049 310.619 540.417C310.489 540.782 310.305 541.065 310.067 541.267C309.83 541.465 309.555 541.564 309.242 541.564C309.034 541.564 308.845 541.521 308.676 541.433C308.507 541.345 308.37 541.221 308.266 541.062C308.165 540.899 308.108 540.712 308.095 540.5H308.08C307.986 540.806 307.821 541.055 307.587 541.247C307.353 541.436 307.077 541.532 306.762 541.535ZM305.502 539.465C305.502 539.813 305.556 540.121 305.663 540.388C305.771 540.655 305.922 540.863 306.117 541.013C306.312 541.159 306.54 541.232 306.801 541.232C307.055 541.232 307.279 541.156 307.475 541.003C307.673 540.85 307.826 540.638 307.934 540.368C308.044 540.098 308.1 539.797 308.1 539.465C308.096 539.133 308.039 538.833 307.929 538.566C307.821 538.299 307.67 538.09 307.475 537.937C307.279 537.784 307.055 537.707 306.801 537.707C306.544 537.707 306.316 537.78 306.117 537.927C305.922 538.073 305.771 538.28 305.663 538.547C305.556 538.814 305.502 539.12 305.502 539.465ZM315.326 535.93V541.096C315.323 541.551 315.243 541.929 315.087 542.229C314.931 542.528 314.719 542.748 314.452 542.888C314.188 543.028 313.891 543.098 313.559 543.098C313.23 543.098 312.93 543.034 312.66 542.907C312.393 542.78 312.183 542.604 312.03 542.38C311.877 542.155 311.801 541.903 311.801 541.623H312.123C312.123 541.844 312.185 542.045 312.309 542.224C312.436 542.399 312.608 542.538 312.826 542.639C313.048 542.736 313.292 542.785 313.559 542.785C313.982 542.788 314.327 542.655 314.594 542.385C314.861 542.111 314.994 541.682 314.994 541.096V535.93H315.326ZM316.488 543L319.018 535.93H319.418L321.957 543H321.615L320.785 540.676H317.66L316.83 543H316.488ZM320.678 540.363L319.242 536.34H319.203L317.768 540.363H320.678ZM322.045 535.93L324.34 539.367H324.379L326.674 535.93H327.064L324.516 539.719V543H324.193V539.719L321.654 535.93H322.045ZM328.568 535.93L331.381 542.521H331.41L334.223 535.93H334.545V543H334.232V536.779H334.203L331.547 543H331.244L328.588 536.779H328.559V543H328.236V535.93H328.568ZM336.469 535.93H340.326V536.232H336.791V539.309H340.111V539.621H336.791V542.688H340.414V543H336.469V535.93Z" fill="black"/>
</svg>
